<svg width="140" height="140" viewBox="0 0 140 140" fill="none" xmlns="http://www.w3.org/2000/svg">
<circle cx="70" cy="70" r="70" fill="white"/>
<mask id="mask0_413_77" style="mask-type:alpha" maskUnits="userSpaceOnUse" x="0" y="0" width="140" height="140">
<circle cx="70" cy="70" r="70" fill="#FAE3B0"/>
</mask>
<g mask="url(#mask0_413_77)">
<path d="M69.9995 36.2406C84.0575 36.2406 95.4544 47.6368 95.4546 61.6947V64.2875C98.0342 64.7204 99.9995 66.9628 99.9995 69.6654V75.8988C99.9995 78.6571 97.9523 80.935 95.2944 81.3002C94.3015 90.2275 88.6937 97.7599 80.9087 101.458V109.828C100.162 110.865 115.455 126.804 115.455 146.316H24.5454C24.5454 126.804 39.8381 110.865 59.0913 109.828V101.458C51.3062 97.7599 45.6975 90.2276 44.7046 81.3002C42.0471 80.9346 39.9995 78.6568 39.9995 75.8988V69.6654C39.9995 66.9628 41.9658 64.7204 44.5454 64.2875V61.6947C44.5456 47.6369 55.9417 36.2408 69.9995 36.2406Z" fill="white"/>
<mask id="mask1_413_77" style="mask-type:luminance" maskUnits="userSpaceOnUse" x="24" y="36" width="92" height="111">
<path d="M69.9995 36.2406C84.0575 36.2406 95.4544 47.6368 95.4546 61.6947V64.2875C98.0342 64.7204 99.9995 66.9628 99.9995 69.6654V75.8988C99.9995 78.6571 97.9523 80.935 95.2944 81.3002C94.3015 90.2275 88.6937 97.7599 80.9087 101.458V109.828C100.162 110.865 115.455 126.804 115.455 146.316H24.5454C24.5454 126.804 39.8381 110.865 59.0913 109.828V101.458C51.3062 97.7599 45.6975 90.2276 44.7046 81.3002C42.0471 80.9346 39.9995 78.6568 39.9995 75.8988V69.6654C39.9995 66.9628 41.9658 64.7204 44.5454 64.2875V61.6947C44.5456 47.6369 55.9417 36.2408 69.9995 36.2406Z" fill="white"/>
</mask>
<g mask="url(#mask1_413_77)">
<rect x="10" y="36.2406" width="120" height="110.075" fill="#D0C6AC"/>
<path d="M95.4546 82.0646C95.4544 96.1226 84.0575 107.519 69.9995 107.519C55.9417 107.518 44.5456 96.1224 44.5454 82.0646V78.4552C44.5454 92.5132 55.9416 103.909 69.9995 103.909C84.0577 103.909 95.4546 92.5134 95.4546 78.4552V82.0646Z" fill="black" fill-opacity="0.1"/>
</g>
<path d="M47.7671 112.295C47.7409 112.558 47.7271 112.822 47.7271 113.089C47.7271 120.434 57.8007 126.389 70.2271 126.389C82.6535 126.389 92.7271 120.434 92.7271 113.089C92.7271 112.886 92.7178 112.685 92.7026 112.484C106.047 117.92 115.454 131.018 115.455 146.316H24.5454C24.5455 130.839 34.1739 117.612 47.7671 112.295Z" fill="#0198F1"/>
<mask id="mask2_413_77" style="mask-type:luminance" maskUnits="userSpaceOnUse" x="24" y="112" width="92" height="35">
<path d="M47.7671 112.295C47.7409 112.558 47.7271 112.822 47.7271 113.089C47.7271 120.434 57.8007 126.389 70.2271 126.389C82.6535 126.389 92.7271 120.434 92.7271 113.089C92.7271 112.886 92.7178 112.685 92.7026 112.484C106.047 117.92 115.454 131.018 115.455 146.316H24.5454C24.5455 130.839 34.1739 117.612 47.7671 112.295Z" fill="white"/>
</mask>
<g mask="url(#mask2_413_77)">
<rect x="10" y="96.6918" width="120" height="49.6241" fill="#0198F1"/>
</g>
<path fill-rule="evenodd" clip-rule="evenodd" d="M63.6362 87.218C63.6362 90.7061 66.4853 93.5338 69.9999 93.5338C73.5144 93.5338 76.3635 90.7061 76.3635 87.218" fill="#403959"/>
<g opacity="0.3">
<path fill-rule="evenodd" clip-rule="evenodd" d="M64.5454 78.6466C64.5454 80.6398 66.9875 82.2556 70 82.2556C73.0124 82.2556 75.4545 80.6398 75.4545 78.6466" fill="#403959"/>
</g>
<ellipse cx="58.1817" cy="70.5262" rx="2.72727" ry="2.70677" fill="#403959"/>
<ellipse cx="81.8181" cy="70.5262" rx="2.72727" ry="2.70677" fill="#403959"/>
<path d="M51.6499 64.7331C53.4294 62.248 58.308 60.8545 62.5103 61.8787C62.9979 61.9975 63.4902 61.7016 63.61 61.2176C63.7297 60.7337 63.4315 60.2451 62.9439 60.1262C58.0636 58.9368 52.4144 60.5505 50.1679 63.6878C49.8771 64.094 49.973 64.6573 50.3823 64.9459C50.7915 65.2346 51.3591 65.1393 51.6499 64.7331Z" fill="#403959"/>
<path d="M88.3499 64.7331C86.5704 62.248 81.6919 60.8545 77.4896 61.8787C77.002 61.9975 76.5097 61.7016 76.3899 61.2176C76.2702 60.7337 76.5684 60.2451 77.056 60.1262C81.9363 58.9368 87.5855 60.5505 89.832 63.6878C90.1228 64.094 90.0268 64.6573 89.6176 64.9459C89.2083 65.2346 88.6408 65.1393 88.3499 64.7331Z" fill="#403959"/>
<mask id="mask3_413_77" style="mask-type:luminance" maskUnits="userSpaceOnUse" x="10" y="20" width="120" height="127">
<rect x="10" y="20" width="120" height="126.316" fill="white"/>
</mask>
<g mask="url(#mask3_413_77)">
<path d="M69.9998 29.0217C81.0471 29.2244 91.3003 31.6447 94.9998 36.2405C100.602 43.2004 112.212 69.6593 112.272 85.4133C112.315 96.6012 107.937 107.816 101.818 108.42C96.782 108.918 89.7613 107.752 80.9089 107.07V101.458C89.5084 97.3728 95.4539 88.6082 95.4539 78.4543V65.8147C90.6765 63.2022 86.6095 60.0495 83.2214 56.845C84.7473 59.662 86.4926 62.2203 88.4607 64.1536C74.5573 60.2819 64.9469 52.3526 59.1882 46.137C56.5411 51.1347 51.8012 58.4437 44.5457 64.012V78.4543C44.5457 88.6081 50.4913 97.3727 59.0906 101.458V107.405C50.1648 108.617 43.0186 110.75 37.9021 110.225C31.4374 109.562 27.9529 96.5991 27.7273 85.4133C27.4471 71.5022 40.5999 42.4638 45.4548 36.6916C49.0563 32.41 58.9524 28.8191 69.9998 29.0217Z" fill="white"/>
<mask id="mask4_413_77" style="mask-type:luminance" maskUnits="userSpaceOnUse" x="27" y="29" width="86" height="82">
<path d="M69.9998 29.0217C81.0471 29.2244 91.3003 31.6447 94.9998 36.2405C100.602 43.2004 112.212 69.6593 112.272 85.4133C112.315 96.6012 107.937 107.816 101.818 108.42C96.782 108.918 89.7613 107.752 80.9089 107.07V101.458C89.5084 97.3728 95.4539 88.6082 95.4539 78.4543V65.8147C90.6765 63.2022 86.6095 60.0495 83.2214 56.845C84.7473 59.662 86.4926 62.2203 88.4607 64.1536C74.5573 60.2819 64.9469 52.3526 59.1882 46.137C56.5411 51.1347 51.8012 58.4437 44.5457 64.012V78.4543C44.5457 88.6081 50.4913 97.3727 59.0906 101.458V107.405C50.1648 108.617 43.0186 110.75 37.9021 110.225C31.4374 109.562 27.9529 96.5991 27.7273 85.4133C27.4471 71.5022 40.5999 42.4638 45.4548 36.6916C49.0563 32.41 58.9524 28.8191 69.9998 29.0217Z" fill="white"/>
</mask>
<g mask="url(#mask4_413_77)">
<rect x="9.54541" y="20" width="120.909" height="126.316" fill="#403959"/>
</g>
</g>
</g>
</svg>
